<svg width="154" height="117" viewBox="0 0 154 117" fill="none" xmlns="http://www.w3.org/2000/svg">
<path d="M21.8265 13.8622C29.0423 19.3654 40.2842 36.9293 46.757 60.6399C28.774 72.7006 21.4298 81.0822 16.2685 104.94C21.3284 87.5834 27.5451 75.9892 38.4365 70.2885C24.5252 84.4972 19.8347 94.5917 19.2557 116.068C20.8222 102.745 23.4058 94.41 29.9901 87.127C24.48 96.379 22.808 102.13 22.4716 113.402C31.5987 47.6044 117.471 46.2453 131.158 112.311C129.09 94.7539 124.129 85.7767 112.247 73.2367C125.531 83.8627 131.826 93.5321 134.39 115.57C134.891 105.924 134.349 101.248 132.233 94.0891C134.367 97.476 135.294 99.7732 136.941 105.131C133.72 84.4934 124.044 70.3981 106.611 60.3719C113.084 36.6613 124.057 19.3654 131.273 13.8622C142.68 46.2986 151.719 63.901 134.793 82.0812L140.43 91.7298C168.085 63.0745 142.846 19.6334 134.793 0.0682373C121.086 6.73901 109.564 17.7573 97.2168 56.3516C81.1922 52.0954 72.1525 52.1313 55.8828 56.3516C43.5361 17.7573 32.0132 6.73904 18.3062 0.0682618C10.2541 19.6334 -14.9851 63.0745 12.6696 91.7298L18.3061 82.0812C1.38053 63.901 10.4192 46.2986 21.8265 13.8622Z" fill="white" stroke="white" stroke-width="0.1"/>
</svg>
