<svg width="197" height="197" viewBox="0 0 197 197" fill="none" xmlns="http://www.w3.org/2000/svg">
<circle cx="98.5" cy="98.5" r="96" fill="white" stroke="black" stroke-width="5"/>
<path d="M43.7766 54.794C50.9925 60.2972 62.2344 77.8611 68.7072 101.572C50.7242 113.632 43.3799 122.014 38.2187 145.872C43.2786 128.515 49.4953 116.921 60.3867 111.22C46.4754 125.429 41.7849 135.523 41.2059 157C42.7724 143.677 45.356 135.342 51.9403 128.059C46.4302 137.311 44.7582 143.062 44.4218 154.334C53.5489 88.5361 139.421 87.177 153.108 153.243C151.04 135.686 146.079 126.708 134.198 114.168C147.481 124.794 153.776 134.464 156.34 156.502C156.841 146.856 156.299 142.18 154.183 135.021C156.317 138.408 157.244 140.705 158.891 146.062C155.67 125.425 145.995 111.33 128.561 101.304C135.034 77.5931 146.008 60.2971 153.223 54.794C164.631 87.2304 173.669 104.833 156.744 123.013L162.38 132.662C190.035 104.006 164.796 60.5652 156.744 41C143.037 47.6708 131.514 58.6891 119.167 97.2834C103.142 93.0272 94.1027 93.0631 77.833 97.2834C65.4863 58.6891 53.9634 47.6708 40.2564 41C32.2043 60.5652 6.96511 104.006 34.6198 132.662L40.2563 123.013C23.3307 104.833 32.3694 87.2304 43.7766 54.794Z" fill="black" stroke="black" stroke-width="0.1"/>
</svg>
